<svg t="1691769003601" class="icon" viewBox="0 0 1024 1024" version="1.1" xmlns="http://www.w3.org/2000/svg"
     p-id="12288" width="64" height="64">
  <path
    d="M597.333333 128a85.333333 85.333333 0 1 1-170.666666 0 85.333333 85.333333 0 0 1 170.666666 0zM256 682.666667a85.333333 85.333333 0 1 1-170.666667 0 85.333333 85.333333 0 0 1 170.666667 0z m597.333333 85.333333a85.333333 85.333333 0 1 0 0-170.666667 85.333333 85.333333 0 0 0 0 170.666667z"
     opacity=".4" p-id="12289"></path>
  <path
    d="M426.581333 597.333333h49.92L401.237333 417.877333H353.109333L276.053333 597.333333h48.128l12.544-31.744H414.293333l12.288 31.744z m-75.776-67.584l25.088-64 24.576 64H350.805333zM571.605333 417.877333h-78.848V597.333333h46.848v-49.664h32c45.824 0 72.192-24.576 72.192-66.816 0-39.936-26.368-62.976-72.192-62.976z m-2.304 92.416h-29.696v-55.04h29.696c18.944 0 29.952 9.472 29.952 27.136 0 18.176-11.008 27.904-29.952 27.904zM666.752 417.877333V597.333333h46.848V417.877333h-46.848z"
     p-id="12290"></path>
  <path
    d="M373.802667 151.04a42.666667 42.666667 0 0 1-18.304 57.514667A341.333333 341.333333 0 0 0 170.666667 512a42.666667 42.666667 0 0 1-85.333334 0 426.666667 426.666667 0 0 1 230.997334-379.221333 42.666667 42.666667 0 0 1 57.472 18.304z m276.394666 0a42.666667 42.666667 0 0 1 57.472-18.261333A426.666667 426.666667 0 0 1 938.666667 512a42.666667 42.666667 0 0 1-85.333334 0 341.333333 341.333333 0 0 0-184.832-303.445333 42.666667 42.666667 0 0 1-18.346666-57.472zM237.44 783.786667a42.666667 42.666667 0 0 1 60.032-6.272A339.754667 339.754667 0 0 0 512 853.333333a339.754667 339.754667 0 0 0 214.528-75.818666 42.666667 42.666667 0 0 1 53.674667 66.304A425.088 425.088 0 0 1 512 938.666667c-101.546667 0-194.986667-35.541333-268.202667-94.848a42.666667 42.666667 0 0 1-6.357333-59.989334z"
     p-id="12291"></path>
</svg>
