<svg t="1691769907462" class="icon" viewBox="0 0 1024 1024" version="1.1" xmlns="http://www.w3.org/2000/svg"
     p-id="17372" width="64" height="64">
  <path
    d="M800.914286 472.990476h-47.542857V346.209524c0-35.352381-28.038095-63.390476-63.390477-63.390476H563.2v-47.542858c0-43.885714-35.352381-79.238095-79.238095-79.238095s-79.238095 35.352381-79.238095 79.238095v47.542858H277.942857c-35.352381 0-63.390476 28.038095-63.390476 63.390476v120.685714h47.542857c47.542857 0 85.333333 37.790476 85.333333 85.333333s-37.790476 85.333333-85.333333 85.333334h-47.542857v120.685714c0 35.352381 28.038095 63.390476 63.390476 63.390476h120.685714v-47.542857c0-47.542857 37.790476-85.333333 85.333334-85.333333s85.333333 37.790476 85.333333 85.333333v47.542857h120.685714c35.352381 0 63.390476-28.038095 63.390477-63.390476V630.247619h47.542857c43.885714 0 79.238095-35.352381 79.238095-79.238095 0-42.666667-35.352381-78.019048-79.238095-78.019048z"
    p-id="17373"></path>
</svg>
