<svg t="1612942670744" class="icon" viewBox="0 0 1024 1024" version="1.1" xmlns="http://www.w3.org/2000/svg" p-id="1209"><path d="M0 211.456h153.6v153.6H0v-153.6z m0 451.072h153.6v153.6H0v-153.6zM102.4 51.2a51.2 51.2 0 0 1 51.2-51.2h819.2a51.2 51.2 0 0 1 51.2 51.2v921.6a51.2 51.2 0 0 1-51.2 51.2H153.6a51.2 51.2 0 0 1-51.2-51.2v-109.568h92.16v-256H102.4V416.768h92.16v-256H102.4V51.2z m509.44 484.4032l24.832-92.6208-67.7376-67.7376-92.5696 24.7808-24.832 92.5696 67.7888 67.7888 92.5696-24.7808z m157.44-204.3392a255.488 255.488 0 0 0-247.9616-65.792l164.8128 164.864-37.888 141.568-141.568 37.9392-164.864-164.864a255.5904 255.5904 0 0 0 427.52 248.064 255.7952 255.7952 0 0 0 0-361.7792z" p-id="1210"></path></svg>
