<svg t="1625393921141" class="icon" viewBox="0 0 1024 1024" version="1.1" xmlns="http://www.w3.org/2000/svg" p-id="1814"><path d="M781.198222 251.050667L262.826667 467.114667 384 559.900444a28.444444 28.444444 0 0 1-34.531556 45.226667L189.155556 482.417778a28.444444 28.444444 0 0 1 6.314666-48.867556l615.367111-256.455111a28.444444 28.444444 0 0 1 38.627556 32.824889l-145.976889 615.708444a28.444444 28.444444 0 0 1-44.942222 16.042667L490.268444 712.817778a28.444444 28.444444 0 0 1 34.588445-45.169778l133.404444 102.115556 122.936889-518.769778z" p-id="1815"></path><path d="M431.957333 800.426667a28.444444 28.444444 0 1 1-56.888889 0v-114.631111a28.444444 28.444444 0 0 1 6.940445-18.659556l376.035555-432.128a28.444444 28.444444 0 0 1 42.894223 37.376l-368.981334 424.049778v103.992889z" p-id="1816"></path></svg>
