<svg t="1608834846742" class="icon" viewBox="0 0 1024 1024" version="1.1" xmlns="http://www.w3.org/2000/svg"
     p-id="37170" width="64" height="64">
  <path
    d="M976.807493 410.545785H876.846942a372.762753 372.762753 0 0 0-35.073878-84.830406l70.667816-70.655722a47.277168 47.277168 0 0 0 0-66.773406l-76.799697-76.799698a47.277168 47.277168 0 0 0-66.773407 0l-70.716194 70.655722a372.956264 372.956264 0 0 0-84.818312-35.146444V47.168318a47.33764 47.33764 0 0 0-47.168318-47.168318h-108.547604a47.33764 47.33764 0 0 0-47.168318 47.168318v99.912174a372.678092 372.678092 0 0 0-84.818312 35.158539l-70.692005-70.643628a47.289263 47.289263 0 0 0-66.773407 0l-76.799697 76.799698a47.277168 47.277168 0 0 0 0 66.773406l70.667816 70.667816a372.895792 372.895792 0 0 0-35.158539 84.818312H47.168318a47.33764 47.33764 0 0 0-47.168318 47.168318v108.559699a47.33764 47.33764 0 0 0 47.168318 47.168318h99.912174a372.895792 372.895792 0 0 0 35.158539 84.818312l-70.643628 70.692005a47.289263 47.289263 0 0 0 0 66.773407l76.799698 76.799697a47.289263 47.289263 0 0 0 66.773406 0l70.667816-70.667816a372.895792 372.895792 0 0 0 84.818312 35.158539v99.682379a47.33764 47.33764 0 0 0 47.168318 47.168318h108.559699a47.33764 47.33764 0 0 0 47.168318-47.168318V876.846942a372.895792 372.895792 0 0 0 84.842501-35.073878l70.667816 70.667816a47.277168 47.277168 0 0 0 66.773407 0l76.799697-76.799697a47.289263 47.289263 0 0 0 0-66.773407l-70.667816-70.667816a372.50877 372.50877 0 0 0 35.158539-84.818312h99.682379a47.33764 47.33764 0 0 0 47.168318-47.168318v-108.595982a47.301357 47.301357 0 0 0-47.168318-47.071563zM511.993953 719.619214A207.637356 207.637356 0 1 1 719.619214 511.993953 207.637356 207.637356 0 0 1 511.993953 719.619214z"
    p-id="37171"></path>
  <path d="M408.187369 511.993953a103.818678 103.818678 0 1 0 207.625262 0 103.818678 103.818678 0 0 0-207.625262 0z"
        p-id="37172"></path>
</svg>
